{"title":"Arrow S02E15 HDTV x264 AAC E-Subs [GWC].mp4","uid":9709484,"size":148712277,"categoryP":"video","categoryS":"tv_shows","magnet":"?xt=urn:btih:c373dd39ac3f3602e23303156c012c7b963e3a6f&amp;dn=Arrow+S02E15+HDTV+x264+AAC+E-Subs+%5BGWC%5D.mp4&amp;tr=udp%3A%2F%2Ftracker.openbittorrent.com%3A80&amp;tr=udp%3A%2F%2Fopen.demonii.com%3A1337&amp;tr=udp%3A%2F%2Ftracker.coppersurfer.tk%3A6969&amp;tr=udp%3A%2F%2Fexodus.desync.com%3A6969","seeders":2,"leechers":0,"uploader":"canc232","files":1,"time":1394091786,"description":"Arrow S02E15 HDTV x264 AAC E-Subs [GWC]\n\n\nSTORYLINE:\nSpoiled billionaire playboy Oliver Queen is missing and presumed dead when his yacht is lost at sea. He returns five years later a changed man, determined to clean up the city as a hooded vigilante armed with a bow. \n\n\nSCREENS : &lt;a href=&quot;\nhttp://i.imgur.com/STr8XpG.jpg&quot; rel=&quot;nofollow&quot; target=&quot;_NEW&quot;&gt;\nhttp://i.imgur.com/STr8XpG.jpg&lt;/a&gt; &lt;a href=&quot;\nhttp://i.imgur.com/AkVWL5w.jpg&quot; rel=&quot;nofollow&quot; target=&quot;_NEW&quot;&gt;\nhttp://i.imgur.com/AkVWL5w.jpg&lt;/a&gt; &lt;a href=&quot;\nhttp://i.imgur.com/Nqh3Elj.jpg&quot; rel=&quot;nofollow&quot; target=&quot;_NEW&quot;&gt;\nhttp://i.imgur.com/Nqh3Elj.jpg&lt;/a&gt;\n\n\nMEDIA INFO :\nGeneral \nFormat : MPEG-4 \nFormat profile : Base Media \nFile size : 142 MiB \nDuration : 41mn 59s \nOverall bit rate mode : Variable \nOverall bit rate : 472 Kbps \n\nVideo \nFormat : AVC \nFormat profile : &lt;a class=&quot;__cf_email__&quot; href=&quot;/cdn-cgi/l/email-protection&quot; data-cfemail=&quot;88c0e1efe0c8c4bba6b8&quot;&gt;[email&amp;#160;protected]&lt;/a&gt;&lt;script cf-hash='f9e31' type=&quot;text/javascript&quot;&gt;\n/* &lt;![CDATA[ */!function(){try{var t=&quot;currentScript&quot;in document?document.currentScript:function(){for(var t=document.getElementsByTagName(&quot;script&quot;),e=t.length;e--;)if(t[e].getAttribute(&quot;cf-hash&quot;))return t[e]}();if(t&amp;&amp;t.previousSibling){var e,r,n,i,c=t.previousSibling,a=c.getAttribute(&quot;data-cfemail&quot;);if(a){for(e=&quot;&quot;,r=parseInt(a.substr(0,2),16),n=2;a.length-n;n+=2)i=parseInt(a.substr(n,2),16)^r,e+=String.fromCharCode(i);e=document.createTextNode(e),c.parentNode.replaceChild(e,c)}}}catch(u){}}();/* ]]&gt; */&lt;/script&gt; \nFormat settings, CABAC : Yes \nFormat settings, ReFrames : 4 frames \nDuration : 41mn 59s \nBit rate : 409 Kbps \nMaximum bit rate : 2 513 Kbps \nWidth : 720 pixels \nHeight : 404 pixels \nDisplay aspect ratio : 16:9 \nFrame rate : 23.976 fps \nStream size : 123 MiB (87%) \nTitle : Arrow S02E15 HDTV x264 AAC E-Subs [GWC] \nWriting library : x264 core \n\nAudio \nFormat : AAC \nFormat profile : HE-AAC / LC \nDuration : 41mn 59s \nBit rate mode : Variable \nChannel(s) : 2 channels \nSampling rate : 48.0 KHz / 24.0 KHz \nStream size : 18.0 MiB (13%) \nLanguage : English \n\nText \nFormat : Timed Text \nDuration : 41mn 32s \nTitle : English Subtitle by elderman \nLanguage : English ","torrent":{"xt":"urn:btih:c373dd39ac3f3602e23303156c012c7b963e3a6f","amp;dn":"Arrow+S02E15+HDTV+x264+AAC+E-Subs+%5BGWC%5D.mp4","amp;tr":["udp%3A%2F%2Ftracker.openbittorrent.com%3A80","udp%3A%2F%2Fopen.demonii.com%3A1337","udp%3A%2F%2Ftracker.coppersurfer.tk%3A6969","udp%3A%2F%2Fexodus.desync.com%3A6969"],"infoHash":"c373dd39ac3f3602e23303156c012c7b963e3a6f","infoHashBuffer":{"type":"Buffer","data":[195,115,221,57,172,63,54,2,226,51,3,21,108,1,44,123,150,62,58,111]},"announce":[],"urlList":[]}}